<mxfile host="app.diagrams.net" modified="2020-12-03T08:50:04.883Z" agent="5.0 (Macintosh; Intel Mac OS X 11_0_1) AppleWebKit/537.36 (KHTML, like Gecko) Chrome/87.0.4280.67 Safari/537.36" etag="ULjvy1PIYbXqY66RuQV1" version="13.10.6" type="github">
  <diagram id="POE9ngJ4KsOTn6whfW7W" name="Page-1">
    <mxGraphModel dx="946" dy="557" grid="0" gridSize="10" guides="1" tooltips="1" connect="1" arrows="1" fold="1" page="1" pageScale="1" pageWidth="827" pageHeight="1169" math="0" shadow="0">
      <root>
        <mxCell id="0" />
        <mxCell id="1" parent="0" />
        <mxCell id="v5agFdSEMTZNnNqLXE84-41" value="" style="rounded=1;whiteSpace=wrap;html=1;" vertex="1" parent="1">
          <mxGeometry x="300" y="413.5" width="51" height="23" as="geometry" />
        </mxCell>
        <mxCell id="v5agFdSEMTZNnNqLXE84-1" value="A" style="rounded=1;whiteSpace=wrap;html=1;" vertex="1" parent="1">
          <mxGeometry x="96" y="137" width="120" height="60" as="geometry" />
        </mxCell>
        <mxCell id="v5agFdSEMTZNnNqLXE84-2" value="B" style="rounded=1;whiteSpace=wrap;html=1;" vertex="1" parent="1">
          <mxGeometry x="437" y="137" width="120" height="60" as="geometry" />
        </mxCell>
        <mxCell id="v5agFdSEMTZNnNqLXE84-3" value="message" style="rounded=0;whiteSpace=wrap;html=1;" vertex="1" parent="1">
          <mxGeometry x="62" y="200" width="179" height="20" as="geometry" />
        </mxCell>
        <mxCell id="v5agFdSEMTZNnNqLXE84-5" value="" style="endArrow=none;html=1;entryX=0.25;entryY=0;entryDx=0;entryDy=0;exitX=0.25;exitY=1;exitDx=0;exitDy=0;" edge="1" parent="1" source="v5agFdSEMTZNnNqLXE84-3" target="v5agFdSEMTZNnNqLXE84-3">
          <mxGeometry width="50" height="50" relative="1" as="geometry">
            <mxPoint x="37" y="280" as="sourcePoint" />
            <mxPoint x="87" y="230" as="targetPoint" />
          </mxGeometry>
        </mxCell>
        <mxCell id="v5agFdSEMTZNnNqLXE84-6" value="" style="endArrow=none;html=1;entryX=0.5;entryY=0;entryDx=0;entryDy=0;exitX=0.5;exitY=1;exitDx=0;exitDy=0;" edge="1" parent="1" source="v5agFdSEMTZNnNqLXE84-3" target="v5agFdSEMTZNnNqLXE84-3">
          <mxGeometry width="50" height="50" relative="1" as="geometry">
            <mxPoint x="116.75" y="230" as="sourcePoint" />
            <mxPoint x="116.75" y="210" as="targetPoint" />
          </mxGeometry>
        </mxCell>
        <mxCell id="v5agFdSEMTZNnNqLXE84-7" value="" style="endArrow=none;html=1;entryX=0.75;entryY=0;entryDx=0;entryDy=0;exitX=0.75;exitY=1;exitDx=0;exitDy=0;" edge="1" parent="1" source="v5agFdSEMTZNnNqLXE84-3" target="v5agFdSEMTZNnNqLXE84-3">
          <mxGeometry width="50" height="50" relative="1" as="geometry">
            <mxPoint x="161.5" y="230" as="sourcePoint" />
            <mxPoint x="161.5" y="210" as="targetPoint" />
          </mxGeometry>
        </mxCell>
        <mxCell id="v5agFdSEMTZNnNqLXE84-9" value="message" style="rounded=0;whiteSpace=wrap;html=1;" vertex="1" parent="1">
          <mxGeometry x="404" y="200" width="179" height="20" as="geometry" />
        </mxCell>
        <mxCell id="v5agFdSEMTZNnNqLXE84-10" value="" style="endArrow=none;html=1;entryX=0.25;entryY=0;entryDx=0;entryDy=0;exitX=0.25;exitY=1;exitDx=0;exitDy=0;" edge="1" parent="1" source="v5agFdSEMTZNnNqLXE84-9" target="v5agFdSEMTZNnNqLXE84-9">
          <mxGeometry width="50" height="50" relative="1" as="geometry">
            <mxPoint x="379" y="280" as="sourcePoint" />
            <mxPoint x="429" y="230" as="targetPoint" />
          </mxGeometry>
        </mxCell>
        <mxCell id="v5agFdSEMTZNnNqLXE84-11" value="" style="endArrow=none;html=1;entryX=0.5;entryY=0;entryDx=0;entryDy=0;exitX=0.5;exitY=1;exitDx=0;exitDy=0;" edge="1" parent="1" source="v5agFdSEMTZNnNqLXE84-9" target="v5agFdSEMTZNnNqLXE84-9">
          <mxGeometry width="50" height="50" relative="1" as="geometry">
            <mxPoint x="458.75" y="230" as="sourcePoint" />
            <mxPoint x="458.75" y="210" as="targetPoint" />
          </mxGeometry>
        </mxCell>
        <mxCell id="v5agFdSEMTZNnNqLXE84-12" value="" style="endArrow=none;html=1;entryX=0.75;entryY=0;entryDx=0;entryDy=0;exitX=0.75;exitY=1;exitDx=0;exitDy=0;" edge="1" parent="1" source="v5agFdSEMTZNnNqLXE84-9" target="v5agFdSEMTZNnNqLXE84-9">
          <mxGeometry width="50" height="50" relative="1" as="geometry">
            <mxPoint x="503.5" y="230" as="sourcePoint" />
            <mxPoint x="503.5" y="210" as="targetPoint" />
          </mxGeometry>
        </mxCell>
        <mxCell id="v5agFdSEMTZNnNqLXE84-13" value="" style="shape=flexArrow;endArrow=classic;html=1;" edge="1" parent="1">
          <mxGeometry width="50" height="50" relative="1" as="geometry">
            <mxPoint x="279" y="162" as="sourcePoint" />
            <mxPoint x="353" y="162" as="targetPoint" />
          </mxGeometry>
        </mxCell>
        <mxCell id="v5agFdSEMTZNnNqLXE84-15" value="" style="rounded=0;whiteSpace=wrap;html=1;" vertex="1" parent="1">
          <mxGeometry x="65" y="343" width="179" height="20" as="geometry" />
        </mxCell>
        <mxCell id="v5agFdSEMTZNnNqLXE84-16" value="" style="endArrow=none;html=1;entryX=0.25;entryY=0;entryDx=0;entryDy=0;exitX=0.25;exitY=1;exitDx=0;exitDy=0;" edge="1" parent="1" source="v5agFdSEMTZNnNqLXE84-15" target="v5agFdSEMTZNnNqLXE84-15">
          <mxGeometry width="50" height="50" relative="1" as="geometry">
            <mxPoint x="40" y="423" as="sourcePoint" />
            <mxPoint x="90" y="373" as="targetPoint" />
          </mxGeometry>
        </mxCell>
        <mxCell id="v5agFdSEMTZNnNqLXE84-17" value="" style="endArrow=none;html=1;entryX=0.5;entryY=0;entryDx=0;entryDy=0;exitX=0.5;exitY=1;exitDx=0;exitDy=0;" edge="1" parent="1" source="v5agFdSEMTZNnNqLXE84-15" target="v5agFdSEMTZNnNqLXE84-15">
          <mxGeometry width="50" height="50" relative="1" as="geometry">
            <mxPoint x="119.75" y="373" as="sourcePoint" />
            <mxPoint x="119.75" y="353" as="targetPoint" />
          </mxGeometry>
        </mxCell>
        <mxCell id="v5agFdSEMTZNnNqLXE84-18" value="" style="endArrow=none;html=1;entryX=0.75;entryY=0;entryDx=0;entryDy=0;exitX=0.75;exitY=1;exitDx=0;exitDy=0;" edge="1" parent="1" source="v5agFdSEMTZNnNqLXE84-15" target="v5agFdSEMTZNnNqLXE84-15">
          <mxGeometry width="50" height="50" relative="1" as="geometry">
            <mxPoint x="164.5" y="373" as="sourcePoint" />
            <mxPoint x="164.5" y="353" as="targetPoint" />
          </mxGeometry>
        </mxCell>
        <mxCell id="v5agFdSEMTZNnNqLXE84-20" value="A" style="text;html=1;strokeColor=none;fillColor=none;align=center;verticalAlign=middle;whiteSpace=wrap;rounded=0;" vertex="1" parent="1">
          <mxGeometry x="65" y="343" width="40" height="20" as="geometry" />
        </mxCell>
        <mxCell id="v5agFdSEMTZNnNqLXE84-21" value="B" style="text;html=1;strokeColor=none;fillColor=none;align=center;verticalAlign=middle;whiteSpace=wrap;rounded=0;" vertex="1" parent="1">
          <mxGeometry x="112.5" y="343" width="40" height="20" as="geometry" />
        </mxCell>
        <mxCell id="v5agFdSEMTZNnNqLXE84-22" value="C" style="text;html=1;strokeColor=none;fillColor=none;align=center;verticalAlign=middle;whiteSpace=wrap;rounded=0;" vertex="1" parent="1">
          <mxGeometry x="156.5" y="343" width="40" height="20" as="geometry" />
        </mxCell>
        <mxCell id="v5agFdSEMTZNnNqLXE84-23" value="D" style="text;html=1;strokeColor=none;fillColor=none;align=center;verticalAlign=middle;whiteSpace=wrap;rounded=0;" vertex="1" parent="1">
          <mxGeometry x="202.5" y="343" width="40" height="20" as="geometry" />
        </mxCell>
        <mxCell id="v5agFdSEMTZNnNqLXE84-24" value="" style="rounded=0;whiteSpace=wrap;html=1;" vertex="1" parent="1">
          <mxGeometry x="66.5" y="415" width="179" height="20" as="geometry" />
        </mxCell>
        <mxCell id="v5agFdSEMTZNnNqLXE84-25" value="" style="endArrow=none;html=1;entryX=0.25;entryY=0;entryDx=0;entryDy=0;exitX=0.25;exitY=1;exitDx=0;exitDy=0;" edge="1" parent="1" source="v5agFdSEMTZNnNqLXE84-24" target="v5agFdSEMTZNnNqLXE84-24">
          <mxGeometry width="50" height="50" relative="1" as="geometry">
            <mxPoint x="41.5" y="495" as="sourcePoint" />
            <mxPoint x="91.5" y="445" as="targetPoint" />
          </mxGeometry>
        </mxCell>
        <mxCell id="v5agFdSEMTZNnNqLXE84-26" value="" style="endArrow=none;html=1;entryX=0.5;entryY=0;entryDx=0;entryDy=0;exitX=0.5;exitY=1;exitDx=0;exitDy=0;" edge="1" parent="1" source="v5agFdSEMTZNnNqLXE84-24" target="v5agFdSEMTZNnNqLXE84-24">
          <mxGeometry width="50" height="50" relative="1" as="geometry">
            <mxPoint x="121.25" y="445" as="sourcePoint" />
            <mxPoint x="121.25" y="425" as="targetPoint" />
          </mxGeometry>
        </mxCell>
        <mxCell id="v5agFdSEMTZNnNqLXE84-27" value="" style="endArrow=none;html=1;entryX=0.75;entryY=0;entryDx=0;entryDy=0;exitX=0.75;exitY=1;exitDx=0;exitDy=0;" edge="1" parent="1" source="v5agFdSEMTZNnNqLXE84-24" target="v5agFdSEMTZNnNqLXE84-24">
          <mxGeometry width="50" height="50" relative="1" as="geometry">
            <mxPoint x="166" y="445" as="sourcePoint" />
            <mxPoint x="166" y="425" as="targetPoint" />
          </mxGeometry>
        </mxCell>
        <mxCell id="v5agFdSEMTZNnNqLXE84-28" value="A" style="text;html=1;strokeColor=none;fillColor=none;align=center;verticalAlign=middle;whiteSpace=wrap;rounded=0;" vertex="1" parent="1">
          <mxGeometry x="66.5" y="415" width="40" height="20" as="geometry" />
        </mxCell>
        <mxCell id="v5agFdSEMTZNnNqLXE84-29" value="B" style="text;html=1;strokeColor=none;fillColor=none;align=center;verticalAlign=middle;whiteSpace=wrap;rounded=0;" vertex="1" parent="1">
          <mxGeometry x="114" y="415" width="40" height="20" as="geometry" />
        </mxCell>
        <mxCell id="v5agFdSEMTZNnNqLXE84-32" value="" style="rounded=0;whiteSpace=wrap;html=1;" vertex="1" parent="1">
          <mxGeometry x="404" y="415" width="179" height="20" as="geometry" />
        </mxCell>
        <mxCell id="v5agFdSEMTZNnNqLXE84-33" value="" style="endArrow=none;html=1;entryX=0.25;entryY=0;entryDx=0;entryDy=0;exitX=0.25;exitY=1;exitDx=0;exitDy=0;" edge="1" parent="1" source="v5agFdSEMTZNnNqLXE84-32" target="v5agFdSEMTZNnNqLXE84-32">
          <mxGeometry width="50" height="50" relative="1" as="geometry">
            <mxPoint x="379" y="495" as="sourcePoint" />
            <mxPoint x="429" y="445" as="targetPoint" />
          </mxGeometry>
        </mxCell>
        <mxCell id="v5agFdSEMTZNnNqLXE84-34" value="" style="endArrow=none;html=1;entryX=0.5;entryY=0;entryDx=0;entryDy=0;exitX=0.5;exitY=1;exitDx=0;exitDy=0;" edge="1" parent="1" source="v5agFdSEMTZNnNqLXE84-32" target="v5agFdSEMTZNnNqLXE84-32">
          <mxGeometry width="50" height="50" relative="1" as="geometry">
            <mxPoint x="458.75" y="445" as="sourcePoint" />
            <mxPoint x="458.75" y="425" as="targetPoint" />
          </mxGeometry>
        </mxCell>
        <mxCell id="v5agFdSEMTZNnNqLXE84-35" value="" style="endArrow=none;html=1;entryX=0.75;entryY=0;entryDx=0;entryDy=0;exitX=0.75;exitY=1;exitDx=0;exitDy=0;" edge="1" parent="1" source="v5agFdSEMTZNnNqLXE84-32" target="v5agFdSEMTZNnNqLXE84-32">
          <mxGeometry width="50" height="50" relative="1" as="geometry">
            <mxPoint x="503.5" y="445" as="sourcePoint" />
            <mxPoint x="503.5" y="425" as="targetPoint" />
          </mxGeometry>
        </mxCell>
        <mxCell id="v5agFdSEMTZNnNqLXE84-39" value="D" style="text;html=1;strokeColor=none;fillColor=none;align=center;verticalAlign=middle;whiteSpace=wrap;rounded=0;" vertex="1" parent="1">
          <mxGeometry x="541.5" y="415" width="40" height="20" as="geometry" />
        </mxCell>
        <mxCell id="v5agFdSEMTZNnNqLXE84-40" value="C" style="text;html=1;strokeColor=none;fillColor=none;align=center;verticalAlign=middle;whiteSpace=wrap;rounded=0;" vertex="1" parent="1">
          <mxGeometry x="306" y="416.5" width="40" height="20" as="geometry" />
        </mxCell>
        <mxCell id="v5agFdSEMTZNnNqLXE84-42" value="send C" style="rounded=1;whiteSpace=wrap;html=1;" vertex="1" parent="1">
          <mxGeometry x="168" y="482" width="95" height="27" as="geometry" />
        </mxCell>
        <mxCell id="v5agFdSEMTZNnNqLXE84-50" style="edgeStyle=orthogonalEdgeStyle;rounded=0;orthogonalLoop=1;jettySize=auto;html=1;entryX=0.5;entryY=0;entryDx=0;entryDy=0;" edge="1" parent="1" source="v5agFdSEMTZNnNqLXE84-44" target="v5agFdSEMTZNnNqLXE84-45">
          <mxGeometry relative="1" as="geometry" />
        </mxCell>
        <mxCell id="v5agFdSEMTZNnNqLXE84-44" value="receive C" style="rounded=1;whiteSpace=wrap;html=1;" vertex="1" parent="1">
          <mxGeometry x="427" y="512" width="95" height="27" as="geometry" />
        </mxCell>
        <mxCell id="v5agFdSEMTZNnNqLXE84-45" value="send ACK" style="rounded=1;whiteSpace=wrap;html=1;" vertex="1" parent="1">
          <mxGeometry x="427" y="582" width="95" height="27" as="geometry" />
        </mxCell>
        <mxCell id="v5agFdSEMTZNnNqLXE84-46" value="receive ACK" style="rounded=1;whiteSpace=wrap;html=1;" vertex="1" parent="1">
          <mxGeometry x="168" y="627" width="95" height="27" as="geometry" />
        </mxCell>
        <mxCell id="v5agFdSEMTZNnNqLXE84-48" value="" style="endArrow=classic;html=1;exitX=1;exitY=0.5;exitDx=0;exitDy=0;entryX=0;entryY=0.5;entryDx=0;entryDy=0;" edge="1" parent="1" source="v5agFdSEMTZNnNqLXE84-42" target="v5agFdSEMTZNnNqLXE84-44">
          <mxGeometry width="50" height="50" relative="1" as="geometry">
            <mxPoint x="284" y="548" as="sourcePoint" />
            <mxPoint x="334" y="498" as="targetPoint" />
          </mxGeometry>
        </mxCell>
        <mxCell id="v5agFdSEMTZNnNqLXE84-49" value="" style="endArrow=classic;html=1;exitX=0;exitY=0.5;exitDx=0;exitDy=0;entryX=1;entryY=0.5;entryDx=0;entryDy=0;" edge="1" parent="1" source="v5agFdSEMTZNnNqLXE84-45" target="v5agFdSEMTZNnNqLXE84-46">
          <mxGeometry width="50" height="50" relative="1" as="geometry">
            <mxPoint x="273" y="499.5" as="sourcePoint" />
            <mxPoint x="437" y="535.5" as="targetPoint" />
          </mxGeometry>
        </mxCell>
      </root>
    </mxGraphModel>
  </diagram>
</mxfile>
